<mxfile host="app.diagrams.net" modified="2023-07-05T06:25:31.164Z" agent="Mozilla/5.0 (Windows NT 10.0; Win64; x64) AppleWebKit/537.36 (KHTML, like Gecko) Chrome/114.0.0.0 Safari/537.36" etag="t97aHzQJ7Lq4Otmpfwf3" version="21.5.2" type="device">
  <diagram name="Page-1" id="aCFp94fTeAwIIQ4NRTM6">
    <mxGraphModel dx="880" dy="528" grid="1" gridSize="10" guides="1" tooltips="1" connect="1" arrows="1" fold="1" page="1" pageScale="1" pageWidth="850" pageHeight="1100" math="0" shadow="0">
      <root>
        <mxCell id="0" />
        <mxCell id="1" parent="0" />
        <mxCell id="9XwL8WswrSsdKyXR2CU7-56" value="" style="group;rotation=0;" parent="1" vertex="1" connectable="0">
          <mxGeometry x="437" y="40" width="80" height="160" as="geometry" />
        </mxCell>
        <mxCell id="9XwL8WswrSsdKyXR2CU7-43" value="" style="rounded=0;whiteSpace=wrap;html=1;rotation=0;" parent="9XwL8WswrSsdKyXR2CU7-56" vertex="1">
          <mxGeometry y="30" width="40" height="100" as="geometry" />
        </mxCell>
        <mxCell id="9XwL8WswrSsdKyXR2CU7-44" value="" style="rounded=0;whiteSpace=wrap;html=1;rotation=0;" parent="9XwL8WswrSsdKyXR2CU7-56" vertex="1">
          <mxGeometry x="40" y="30" width="40" height="100" as="geometry" />
        </mxCell>
        <mxCell id="9XwL8WswrSsdKyXR2CU7-45" value="&lt;font style=&quot;font-size: 17px;&quot;&gt;+&lt;/font&gt;" style="rounded=0;whiteSpace=wrap;html=1;rotation=0;" parent="9XwL8WswrSsdKyXR2CU7-56" vertex="1">
          <mxGeometry width="40" height="30" as="geometry" />
        </mxCell>
        <mxCell id="9XwL8WswrSsdKyXR2CU7-46" value="&lt;font style=&quot;font-size: 17px;&quot;&gt;+&lt;/font&gt;" style="rounded=0;whiteSpace=wrap;html=1;rotation=0;" parent="9XwL8WswrSsdKyXR2CU7-56" vertex="1">
          <mxGeometry x="40" width="40" height="30" as="geometry" />
        </mxCell>
        <mxCell id="9XwL8WswrSsdKyXR2CU7-47" value="&lt;font style=&quot;font-size: 19px;&quot;&gt;-&lt;/font&gt;" style="rounded=0;whiteSpace=wrap;html=1;rotation=0;" parent="9XwL8WswrSsdKyXR2CU7-56" vertex="1">
          <mxGeometry x="40" y="130" width="40" height="30" as="geometry" />
        </mxCell>
        <mxCell id="9XwL8WswrSsdKyXR2CU7-48" value="&lt;font style=&quot;font-size: 19px;&quot;&gt;-&lt;/font&gt;" style="rounded=0;whiteSpace=wrap;html=1;rotation=0;" parent="9XwL8WswrSsdKyXR2CU7-56" vertex="1">
          <mxGeometry y="130" width="40" height="30" as="geometry" />
        </mxCell>
        <mxCell id="9XwL8WswrSsdKyXR2CU7-54" value="&lt;font style=&quot;font-size: 15px;&quot;&gt;Cell1&lt;/font&gt;" style="text;html=1;strokeColor=none;fillColor=none;align=center;verticalAlign=middle;whiteSpace=wrap;rounded=0;rotation=-90;" parent="9XwL8WswrSsdKyXR2CU7-56" vertex="1">
          <mxGeometry x="-12" y="63" width="65" height="30" as="geometry" />
        </mxCell>
        <mxCell id="9XwL8WswrSsdKyXR2CU7-55" value="&lt;font style=&quot;font-size: 15px;&quot;&gt;Cell2&lt;/font&gt;" style="text;html=1;strokeColor=none;fillColor=none;align=center;verticalAlign=middle;whiteSpace=wrap;rounded=0;rotation=-90;" parent="9XwL8WswrSsdKyXR2CU7-56" vertex="1">
          <mxGeometry x="28" y="63" width="65" height="30" as="geometry" />
        </mxCell>
        <mxCell id="9XwL8WswrSsdKyXR2CU7-57" value="" style="group" parent="1" vertex="1" connectable="0">
          <mxGeometry x="560" y="280" width="80" height="120" as="geometry" />
        </mxCell>
        <mxCell id="9XwL8WswrSsdKyXR2CU7-26" value="&lt;font style=&quot;font-size: 14px;&quot;&gt;Airborne&lt;br&gt;Ace&lt;/font&gt;" style="rounded=0;whiteSpace=wrap;html=1;" parent="9XwL8WswrSsdKyXR2CU7-57" vertex="1">
          <mxGeometry y="27.692307692307693" width="80" height="64.61538461538461" as="geometry" />
        </mxCell>
        <mxCell id="9XwL8WswrSsdKyXR2CU7-31" value="&lt;font style=&quot;font-size: 10px;&quot;&gt;Battery&lt;/font&gt;" style="rounded=0;whiteSpace=wrap;html=1;" parent="9XwL8WswrSsdKyXR2CU7-57" vertex="1">
          <mxGeometry width="40" height="27.692307692307693" as="geometry" />
        </mxCell>
        <mxCell id="9XwL8WswrSsdKyXR2CU7-33" value="&lt;font style=&quot;font-size: 10px;&quot;&gt;Switch&lt;/font&gt;" style="rounded=0;whiteSpace=wrap;html=1;" parent="9XwL8WswrSsdKyXR2CU7-57" vertex="1">
          <mxGeometry x="40" width="40" height="27.692307692307693" as="geometry" />
        </mxCell>
        <mxCell id="9XwL8WswrSsdKyXR2CU7-34" value="&lt;font style=&quot;font-size: 10px;&quot;&gt;Main&lt;/font&gt;" style="rounded=0;whiteSpace=wrap;html=1;" parent="9XwL8WswrSsdKyXR2CU7-57" vertex="1">
          <mxGeometry x="40" y="92.3076923076923" width="40" height="27.692307692307693" as="geometry" />
        </mxCell>
        <mxCell id="9XwL8WswrSsdKyXR2CU7-35" value="&lt;font style=&quot;font-size: 10px;&quot;&gt;Drogue&lt;/font&gt;" style="rounded=0;whiteSpace=wrap;html=1;" parent="9XwL8WswrSsdKyXR2CU7-57" vertex="1">
          <mxGeometry y="92.3076923076923" width="40" height="27.692307692307693" as="geometry" />
        </mxCell>
        <mxCell id="9XwL8WswrSsdKyXR2CU7-60" value="" style="endArrow=none;html=1;rounded=0;entryX=0.567;entryY=1.001;entryDx=0;entryDy=0;entryPerimeter=0;" parent="1" target="9XwL8WswrSsdKyXR2CU7-48" edge="1">
          <mxGeometry width="50" height="50" relative="1" as="geometry">
            <mxPoint x="500" y="220" as="sourcePoint" />
            <mxPoint x="450" y="220" as="targetPoint" />
            <Array as="points">
              <mxPoint x="460" y="220" />
            </Array>
          </mxGeometry>
        </mxCell>
        <mxCell id="9XwL8WswrSsdKyXR2CU7-61" value="" style="endArrow=none;html=1;rounded=0;exitX=0.25;exitY=0;exitDx=0;exitDy=0;entryX=0.57;entryY=0.995;entryDx=0;entryDy=0;entryPerimeter=0;" parent="1" source="9XwL8WswrSsdKyXR2CU7-31" target="9XwL8WswrSsdKyXR2CU7-47" edge="1">
          <mxGeometry width="50" height="50" relative="1" as="geometry">
            <mxPoint x="580" y="260" as="sourcePoint" />
            <mxPoint x="490" y="230" as="targetPoint" />
            <Array as="points">
              <mxPoint x="570" y="220" />
              <mxPoint x="500" y="220" />
            </Array>
          </mxGeometry>
        </mxCell>
        <mxCell id="9XwL8WswrSsdKyXR2CU7-62" value="" style="endArrow=none;html=1;rounded=0;fillColor=#e51400;strokeColor=#B20000;entryX=0.578;entryY=-0.007;entryDx=0;entryDy=0;entryPerimeter=0;" parent="1" target="9XwL8WswrSsdKyXR2CU7-45" edge="1">
          <mxGeometry width="50" height="50" relative="1" as="geometry">
            <mxPoint x="500" y="20" as="sourcePoint" />
            <mxPoint x="460" y="30" as="targetPoint" />
            <Array as="points">
              <mxPoint x="460" y="20" />
            </Array>
          </mxGeometry>
        </mxCell>
        <mxCell id="9XwL8WswrSsdKyXR2CU7-63" value="" style="endArrow=none;html=1;rounded=0;exitX=0.75;exitY=0;exitDx=0;exitDy=0;fillColor=#e51400;strokeColor=#B20000;entryX=0.575;entryY=0;entryDx=0;entryDy=0;entryPerimeter=0;" parent="1" source="9XwL8WswrSsdKyXR2CU7-31" target="9XwL8WswrSsdKyXR2CU7-46" edge="1">
          <mxGeometry width="50" height="50" relative="1" as="geometry">
            <mxPoint x="260" y="250" as="sourcePoint" />
            <mxPoint x="510" y="30" as="targetPoint" />
            <Array as="points">
              <mxPoint x="590" y="20" />
              <mxPoint x="500" y="20" />
            </Array>
          </mxGeometry>
        </mxCell>
        <mxCell id="9XwL8WswrSsdKyXR2CU7-64" value="" style="endArrow=none;html=1;rounded=0;fillColor=#0050ef;strokeColor=#061465;exitX=0.757;exitY=0.926;exitDx=0;exitDy=0;entryX=0.75;entryY=0;entryDx=0;entryDy=0;exitPerimeter=0;" parent="1" source="9XwL8WswrSsdKyXR2CU7-66" target="9XwL8WswrSsdKyXR2CU7-33" edge="1">
          <mxGeometry width="50" height="50" relative="1" as="geometry">
            <mxPoint x="440" y="280" as="sourcePoint" />
            <mxPoint x="330" y="250" as="targetPoint" />
            <Array as="points">
              <mxPoint x="630" y="240" />
            </Array>
          </mxGeometry>
        </mxCell>
        <mxCell id="9XwL8WswrSsdKyXR2CU7-66" value="S3" style="ellipse;whiteSpace=wrap;html=1;aspect=fixed;" parent="1" vertex="1">
          <mxGeometry x="600" y="90" width="40" height="40" as="geometry" />
        </mxCell>
        <mxCell id="9XwL8WswrSsdKyXR2CU7-67" value="" style="endArrow=none;html=1;rounded=0;fillColor=#0050ef;strokeColor=#061465;entryX=0.25;entryY=0;entryDx=0;entryDy=0;exitX=0.242;exitY=0.934;exitDx=0;exitDy=0;exitPerimeter=0;" parent="1" source="9XwL8WswrSsdKyXR2CU7-66" target="9XwL8WswrSsdKyXR2CU7-33" edge="1">
          <mxGeometry width="50" height="50" relative="1" as="geometry">
            <mxPoint x="610" y="130" as="sourcePoint" />
            <mxPoint x="510" y="250" as="targetPoint" />
            <Array as="points">
              <mxPoint x="610" y="270" />
            </Array>
          </mxGeometry>
        </mxCell>
        <mxCell id="9XwL8WswrSsdKyXR2CU7-38" value="&lt;font style=&quot;font-size: 10px;&quot;&gt;VCC&lt;/font&gt;" style="rounded=0;whiteSpace=wrap;html=1;" parent="1" vertex="1">
          <mxGeometry x="400" y="280" width="40" height="30" as="geometry" />
        </mxCell>
        <mxCell id="9XwL8WswrSsdKyXR2CU7-37" value="&lt;font style=&quot;font-size: 10px;&quot;&gt;Gnd&lt;br&gt;&lt;/font&gt;" style="rounded=0;whiteSpace=wrap;html=1;" parent="1" vertex="1">
          <mxGeometry x="400" y="310" width="40" height="30" as="geometry" />
        </mxCell>
        <mxCell id="9XwL8WswrSsdKyXR2CU7-39" value="&lt;font style=&quot;font-size: 10px;&quot;&gt;RX&lt;/font&gt;" style="rounded=0;whiteSpace=wrap;html=1;" parent="1" vertex="1">
          <mxGeometry x="400" y="340" width="40" height="30" as="geometry" />
        </mxCell>
        <mxCell id="9XwL8WswrSsdKyXR2CU7-40" value="&lt;font style=&quot;font-size: 10px;&quot;&gt;TX&lt;/font&gt;" style="rounded=0;whiteSpace=wrap;html=1;" parent="1" vertex="1">
          <mxGeometry x="400" y="370" width="40" height="30" as="geometry" />
        </mxCell>
        <mxCell id="9XwL8WswrSsdKyXR2CU7-36" value="" style="rounded=0;whiteSpace=wrap;html=1;" parent="1" vertex="1">
          <mxGeometry x="360" y="280" width="40" height="120" as="geometry" />
        </mxCell>
        <mxCell id="lRpLS6zEa1Rtm8-zW-W6-2" value="" style="endArrow=none;html=1;rounded=0;fillColor=#e51400;strokeColor=#B20000;exitX=1;exitY=0.5;exitDx=0;exitDy=0;" edge="1" parent="1" source="9XwL8WswrSsdKyXR2CU7-38">
          <mxGeometry width="50" height="50" relative="1" as="geometry">
            <mxPoint x="400" y="320" as="sourcePoint" />
            <mxPoint x="560" y="295" as="targetPoint" />
          </mxGeometry>
        </mxCell>
        <mxCell id="lRpLS6zEa1Rtm8-zW-W6-3" value="" style="endArrow=none;html=1;rounded=0;entryX=0;entryY=0.268;entryDx=0;entryDy=0;exitX=1;exitY=0.5;exitDx=0;exitDy=0;entryPerimeter=0;" edge="1" parent="1" source="9XwL8WswrSsdKyXR2CU7-37" target="9XwL8WswrSsdKyXR2CU7-26">
          <mxGeometry width="50" height="50" relative="1" as="geometry">
            <mxPoint x="450" y="305" as="sourcePoint" />
            <mxPoint x="570" y="304" as="targetPoint" />
          </mxGeometry>
        </mxCell>
        <mxCell id="lRpLS6zEa1Rtm8-zW-W6-4" value="" style="endArrow=none;html=1;rounded=0;entryX=0;entryY=0.732;entryDx=0;entryDy=0;exitX=1;exitY=0.5;exitDx=0;exitDy=0;fillColor=#6d8764;strokeColor=#3A5431;entryPerimeter=0;" edge="1" parent="1" source="9XwL8WswrSsdKyXR2CU7-39" target="9XwL8WswrSsdKyXR2CU7-26">
          <mxGeometry width="50" height="50" relative="1" as="geometry">
            <mxPoint x="450" y="335" as="sourcePoint" />
            <mxPoint x="570" y="334" as="targetPoint" />
          </mxGeometry>
        </mxCell>
        <mxCell id="lRpLS6zEa1Rtm8-zW-W6-5" value="" style="endArrow=none;html=1;rounded=0;entryX=0;entryY=0.458;entryDx=0;entryDy=0;exitX=1;exitY=0.5;exitDx=0;exitDy=0;fillColor=#6d8764;strokeColor=#3A5431;entryPerimeter=0;" edge="1" parent="1" source="9XwL8WswrSsdKyXR2CU7-40" target="9XwL8WswrSsdKyXR2CU7-35">
          <mxGeometry width="50" height="50" relative="1" as="geometry">
            <mxPoint x="460" y="345" as="sourcePoint" />
            <mxPoint x="580" y="344" as="targetPoint" />
          </mxGeometry>
        </mxCell>
        <mxCell id="lRpLS6zEa1Rtm8-zW-W6-6" value="&lt;font style=&quot;font-size: 14px;&quot;&gt;XBEE&lt;/font&gt;" style="text;html=1;strokeColor=none;fillColor=none;align=center;verticalAlign=middle;whiteSpace=wrap;rounded=0;rotation=-90;" vertex="1" parent="1">
          <mxGeometry x="350" y="325" width="60" height="30" as="geometry" />
        </mxCell>
      </root>
    </mxGraphModel>
  </diagram>
</mxfile>
